<?xml version="1.0" standalone="no"?>
<!DOCTYPE svg PUBLIC "-//W3C//DTD SVG 20010904//EN"
 "http://www.w3.org/TR/2001/REC-SVG-20010904/DTD/svg10.dtd">
<svg version="1.0" xmlns="http://www.w3.org/2000/svg"
 width="500.000000pt" height="500.000000pt" viewBox="0 0 500.000000 500.000000"
 preserveAspectRatio="xMidYMid meet">
<metadata>
Created by potrace 1.16, written by Peter Selinger 2001-2019
</metadata>
<g transform="translate(0.000000,500.000000) scale(0.100000,-0.100000)"
fill="#000000" stroke="none">
<path d="M2807 4380 c-136 -46 -231 -119 -315 -243 -91 -131 -92 -150 -91
-1547 0 -1268 6 -1168 -67 -1133 -47 22 -52 36 -19 51 25 12 25 12 24 299 -1
159 -4 313 -7 343 -7 55 -7 55 -202 58 -107 1 -200 -1 -205 -5 -6 -5 -38 -42
-71 -83 -108 -133 -199 -205 -304 -240 -68 -23 -110 -17 -110 15 0 31 -32 93
-55 105 -13 7 -32 34 -44 61 -11 27 -38 71 -59 97 -22 26 -52 72 -67 102 -47
94 -69 117 -125 129 -40 9 -58 8 -85 -3 -48 -20 -60 -68 -44 -178 12 -83 12
-83 -26 -173 -21 -51 -39 -114 -42 -146 -5 -50 -2 -61 20 -90 31 -42 41 -75
27 -84 -15 -9 -48 22 -73 70 -16 30 -21 58 -21 110 -1 60 5 82 38 155 39 84
39 85 28 149 -13 76 -27 95 -48 66 -16 -20 -15 -24 3 -147 4 -29 2 -39 -11
-44 -9 -4 -19 -4 -22 -1 -3 3 -17 81 -30 174 -32 226 -48 537 -41 828 5 201 9
253 27 320 63 237 175 394 339 477 65 33 65 33 231 33 164 0 165 0 230 -31
135 -64 282 -209 380 -373 33 -55 41 -77 38 -108 -5 -68 -14 -64 -212 92 -130
101 -253 143 -395 133 -88 -7 -160 -39 -215 -98 -53 -57 -75 -98 -111 -210
-28 -85 -28 -85 -28 -395 0 -170 3 -337 7 -369 8 -64 28 -90 97 -131 22 -13
51 -49 84 -106 27 -47 66 -105 86 -130 20 -24 48 -66 62 -94 14 -27 35 -56 47
-63 12 -7 30 -33 41 -58 11 -24 26 -44 34 -44 18 0 105 42 105 50 0 4 -22 31
-49 60 -63 68 -131 184 -165 280 -78 217 -97 612 -40 834 24 93 79 199 129
250 58 57 100 67 160 38 62 -30 154 -111 205 -180 45 -61 45 -61 268 -62 222
0 222 0 222 355 0 354 0 354 -80 423 -134 114 -236 166 -382 196 -101 21 -171
20 -359 -4 -331 -43 -435 -70 -551 -147 -149 -98 -271 -281 -342 -514 -56
-185 -74 -465 -57 -896 15 -377 45 -566 133 -823 81 -238 245 -452 410 -536
138 -70 1367 -587 1628 -685 110 -41 240 -49 386 -25 228 38 746 158 849 197
30 11 82 41 115 66 156 117 273 368 206 442 -15 17 -31 21 -78 21 -46 0 -60 4
-65 17 -4 10 -1 19 8 22 29 9 79 69 79 94 0 34 -14 42 -80 42 -48 0 -56 3 -67
25 -7 14 -13 48 -13 75 -1 103 -17 172 -55 234 -20 33 -34 64 -30 70 10 17 54
-11 103 -64 38 -42 46 -47 74 -41 77 15 91 79 31 139 -47 47 -127 87 -174 87
-21 0 -45 7 -54 16 -15 15 -14 18 1 43 24 36 43 48 87 55 54 9 112 40 135 73
29 41 36 84 17 108 -14 19 -16 19 -52 -23 -31 -34 -51 -47 -105 -63 -82 -24
-124 -57 -139 -110 -15 -50 -33 -66 -54 -49 -8 7 -15 17 -15 23 0 5 -13 38
-30 73 -33 70 -65 94 -125 94 -72 0 -110 -34 -145 -128 -18 -49 -21 -73 -16
-115 21 -165 24 -147 -35 -232 -44 -64 -53 -87 -57 -131 -5 -62 7 -84 47 -84
36 0 66 34 81 90 16 60 37 100 53 100 18 0 67 -52 67 -71 0 -7 -14 -32 -30
-53 -34 -45 -39 -90 -14 -137 25 -48 11 -69 -45 -69 -52 0 -113 -32 -119 -63
-2 -9 9 -28 25 -42 91 -82 133 -126 133 -138 0 -8 -18 -31 -41 -52 -50 -45
-58 -45 -229 18 -392 143 -517 190 -530 203 -13 13 -16 119 -21 787 -3 425 -9
779 -13 789 -5 12 -27 19 -79 25 -72 8 -72 8 -72 238 0 159 4 241 13 265 30
85 175 221 304 285 97 47 167 65 263 65 68 0 89 -4 140 -29 123 -59 212 -188
241 -351 8 -47 16 -157 17 -245 2 -160 2 -160 -32 -176 -51 -24 -61 -44 -61
-124 0 -194 -99 -297 -329 -344 -51 -10 -97 -24 -101 -30 -10 -17 -20 -404
-21 -826 0 -289 2 -361 13 -368 18 -10 230 -88 246 -90 11 -2 15 99 19 548 3
303 8 553 12 557 3 3 56 16 116 28 121 24 244 66 310 104 279 164 444 535 407
915 -19 187 -65 318 -162 461 -79 117 -225 227 -365 276 -101 35 -105 37 -165
117 -80 106 -213 189 -354 222 -33 8 -108 15 -166 15 -90 0 -118 -5 -193 -30z
m569 -379 c-6 -74 -18 -93 -43 -69 -21 22 -24 128 -4 152 13 15 15 15 34 -1
17 -16 19 -26 13 -82z m-651 67 c3 -13 4 -111 3 -218 -3 -170 -5 -195 -19
-198 -9 -2 -19 4 -23 13 -8 23 -9 386 -1 408 10 24 34 21 40 -5z m326 -29 c14
-28 8 -184 -8 -200 -7 -7 -16 -9 -20 -5 -10 9 -17 190 -9 211 8 21 23 19 37
-6z m449 1 c9 -16 8 -22 -5 -26 -21 -9 -37 8 -29 29 8 23 21 21 34 -3z m-930
-29 c11 -21 12 -381 1 -511 -5 -59 -10 -75 -23 -78 -11 -2 -18 6 -22 25 -9 44
-12 535 -3 561 10 27 33 29 47 3z m638 7 c18 -18 16 -133 -3 -148 -25 -21 -35
-1 -35 74 0 85 9 103 38 74z m-320 -30 c8 -8 12 -50 12 -124 0 -90 -3 -114
-16 -125 -14 -11 -18 -10 -29 5 -25 34 -32 211 -9 247 7 13 28 11 42 -3z
m-350 -810 c17 -17 15 -73 -2 -87 -12 -10 -17 -8 -25 8 -6 11 -11 33 -11 49 0
41 15 53 38 30z m-1383 -913 c8 -19 22 -51 30 -70 29 -69 11 -97 -68 -99 -32
-1 -44 5 -68 32 -24 26 -29 41 -29 82 0 64 23 90 80 90 37 0 42 -3 55 -35z
m2512 -141 c8 -21 -13 -42 -28 -27 -13 13 -5 43 11 43 6 0 13 -7 17 -16z m83
-10 c0 -17 -22 -14 -28 4 -2 7 3 12 12 12 9 0 16 -7 16 -16z m-2500 -28 c0
-16 -28 -42 -36 -33 -8 7 14 47 26 47 6 0 10 -6 10 -14z m-162 -46 c45 -20 51
-30 27 -50 -12 -10 -20 -9 -40 4 -36 24 -51 20 -74 -19 -33 -56 -54 -41 -30
22 14 37 38 63 58 63 9 0 35 -9 59 -20z m909 -25 c74 -52 41 -193 -84 -357
-27 -35 -52 -58 -64 -58 -26 0 -25 4 20 79 40 66 64 141 54 167 -11 30 -41 14
-64 -33 -12 -27 -42 -77 -66 -112 -34 -51 -43 -72 -43 -107 0 -34 -6 -50 -27
-73 -43 -45 -109 -62 -269 -68 -167 -7 -194 -2 -194 32 0 29 -17 75 -27 75 -9
0 -49 -36 -75 -69 -10 -11 -22 -21 -28 -21 -17 0 -24 31 -12 51 19 30 14 39
-20 39 -47 0 -138 45 -138 67 1 45 46 67 191 92 154 27 360 53 367 46 21 -20
-47 -36 -293 -69 -115 -16 -184 -33 -205 -53 -13 -13 -13 -16 4 -29 26 -19 66
-18 66 1 0 8 9 15 20 15 11 0 20 -7 20 -15 0 -24 38 -17 56 10 22 34 42 31 59
-9 22 -53 131 -110 162 -85 21 19 15 48 -15 63 -15 8 -36 23 -46 35 -17 19
-18 21 -1 27 9 4 32 -1 51 -10 51 -24 72 -20 92 14 9 17 26 33 37 36 11 4 35
19 53 35 17 16 65 51 105 78 39 27 106 79 147 116 68 61 127 105 140 105 3 0
15 -7 27 -15z m1753 -64 c0 -24 -19 -31 -83 -31 -48 0 -88 13 -77 24 5 4 107
22 143 25 10 1 17 -6 17 -18z m85 -31 c9 -14 -12 -47 -42 -67 -28 -18 -149
-28 -158 -12 -8 12 23 25 74 32 29 4 53 14 70 31 27 27 46 33 56 16z m-2733
-50 c22 -30 36 -100 20 -100 -7 0 -19 15 -28 33 -9 17 -25 39 -37 48 -13 11
-18 23 -14 33 9 23 36 17 59 -14z m216 8 c16 -16 15 -63 -2 -77 -22 -19 -84
-25 -101 -11 -8 7 -15 26 -15 42 0 23 6 32 33 43 40 18 69 19 85 3z m2582 -57
c0 -46 -120 -97 -189 -81 -39 9 -38 30 1 30 33 0 115 34 153 63 23 18 35 13
35 -12z m280 -21 c0 -5 -2 -10 -4 -10 -3 0 -8 5 -11 10 -3 6 -1 10 4 10 6 0
11 -4 11 -10z m-3160 -36 c0 -9 -5 -14 -12 -12 -18 6 -21 28 -4 28 9 0 16 -7
16 -16z m2944 -13 c29 -46 -157 -130 -193 -88 -10 13 -4 18 41 31 29 8 69 27
88 40 37 27 55 31 64 17z m-52 -218 c20 -24 41 -90 34 -108 -4 -11 -22 -15
-66 -15 -57 0 -61 2 -80 33 -26 41 -23 56 19 84 41 27 72 29 93 6z m258 -158
c0 -24 -35 -33 -180 -45 -74 -6 -169 -15 -210 -20 -176 -21 -217 -23 -225 -11
-4 7 -5 14 -2 17 4 4 330 45 507 63 47 4 91 9 98 10 6 0 12 -6 12 -14z m-1685
-100 c493 -178 939 -346 946 -357 12 -19 -2 -38 -29 -38 -28 0 -146 42 -842
296 -129 47 -278 102 -330 121 -111 40 -123 49 -95 69 29 22 56 15 350 -91z
m-313 -29 c128 -47 307 -112 398 -146 91 -34 271 -100 400 -147 129 -47 259
-96 288 -109 53 -24 66 -45 35 -63 -17 -9 -31 -5 -283 88 -41 15 -147 54 -235
85 -88 32 -207 76 -265 98 -58 22 -125 47 -150 55 -25 8 -128 47 -230 85 -102
38 -197 74 -212 80 -42 16 -36 54 9 57 7 1 118 -37 245 -83z m1838 29 c15 -18
6 -45 -13 -45 -20 0 -40 27 -33 45 7 19 30 19 46 0z m-1987 -114 c999 -373
1101 -413 1105 -434 4 -19 -31 -31 -66 -22 -31 7 -198 66 -287 100 -33 13
-195 74 -360 135 -375 140 -725 278 -742 292 -18 15 2 38 34 38 13 0 156 -49
316 -109z m1884 93 c12 -31 -51 -53 -83 -29 -19 15 -19 15 0 30 26 20 75 19
83 -1z m-240 -20 c9 -23 -11 -38 -26 -20 -13 16 -7 36 10 36 5 0 12 -7 16 -16z
m98 -2 c0 -18 -20 -15 -23 4 -3 10 1 15 10 12 7 -3 13 -10 13 -16z m458 -36
c9 -24 -13 -33 -108 -46 -175 -24 -286 -49 -335 -76 -31 -17 -104 -83 -194
-175 -157 -162 -253 -233 -361 -269 -55 -18 -90 -22 -218 -23 -163 -1 -178 3
-337 68 -69 29 -90 42 -90 56 0 17 33 9 169 -38 134 -47 138 -48 261 -48 113
0 131 3 188 26 117 50 172 91 321 243 213 216 250 237 506 276 151 23 191 24
198 6z"/>
<path d="M1070 2235 c-17 -21 -8 -50 17 -53 17 -3 24 3 29 22 10 42 -19 63
-46 31z"/>
<path d="M1130 2195 c0 -8 7 -15 15 -15 8 0 15 7 15 15 0 8 -7 15 -15 15 -8 0
-15 -7 -15 -15z"/>
<path d="M1127 2153 c-12 -11 -8 -43 6 -43 22 0 40 18 34 34 -6 16 -28 21 -40
9z"/>
<path d="M1703 1762 c-48 -25 -133 -94 -133 -108 0 -3 17 -23 37 -45 40 -42
72 -49 94 -23 11 14 10 21 -4 45 -20 36 -16 46 36 84 41 30 62 75 35 75 -7 0
-36 -13 -65 -28z"/>
<path d="M1487 1603 c-23 -22 24 -88 59 -81 52 10 31 88 -25 88 -15 0 -31 -3
-34 -7z"/>
<path d="M1260 3806 c-184 -51 -333 -235 -370 -456 -13 -80 -10 -100 19 -100
24 0 40 28 70 125 31 97 77 179 135 242 73 81 118 99 289 118 52 6 57 9 57 30
0 13 -10 31 -22 39 -27 19 -113 20 -178 2z"/>
<path d="M1546 3765 c-17 -18 -10 -52 14 -65 24 -13 44 12 36 44 -7 30 -31 40
-50 21z"/>
<path d="M1711 3661 c-7 -13 -6 -23 3 -36 17 -24 50 -15 54 14 6 39 -39 56
-57 22z"/>
<path d="M3178 3580 c-68 -12 -142 -56 -200 -120 -63 -68 -81 -108 -82 -185
-1 -76 30 -134 93 -176 59 -39 113 -52 186 -46 116 9 214 76 267 184 27 54 32
77 32 132 -1 114 -57 186 -164 210 -51 12 -66 12 -132 1z"/>
<path d="M869 3148 c-15 -28 -5 -572 13 -683 15 -91 28 -101 66 -45 20 30 23
42 17 85 -4 28 -12 183 -19 346 -8 163 -16 302 -20 308 -12 18 -45 12 -57 -11z"/>
<path d="M3391 2901 c-6 -11 -11 -62 -11 -114 0 -74 3 -96 15 -101 8 -3 21 2
30 10 24 24 18 217 -7 222 -9 2 -21 -6 -27 -17z"/>
<path d="M3241 2896 c-27 -32 -25 -223 2 -261 14 -19 42 -12 52 13 14 37 16
207 3 232 -16 29 -40 37 -57 16z"/>
<path d="M2957 2885 c-25 -25 -29 -52 -25 -179 3 -123 13 -150 46 -130 23 15
35 109 27 211 -4 45 -12 89 -19 98 -12 16 -13 16 -29 0z"/>
<path d="M3090 2886 c-14 -18 -20 -213 -7 -259 6 -23 12 -28 35 -25 27 3 27 3
30 100 5 161 -18 232 -58 184z"/>
<path d="M2934 2485 c-4 -9 -2 -21 4 -27 15 -15 44 -1 40 19 -4 23 -36 29 -44
8z"/>
<path d="M2937 2384 c-4 -4 -7 -128 -7 -274 0 -217 3 -270 14 -279 11 -9 18
-8 30 4 14 14 16 46 15 223 -1 251 -8 326 -29 330 -9 1 -19 0 -23 -4z"/>
<path d="M2934 1748 c-13 -20 -18 -398 -6 -410 5 -5 19 -7 31 -3 20 6 21 12
21 216 0 200 -1 209 -19 209 -11 0 -23 -5 -27 -12z"/>
<path d="M604 1496 c-27 -27 -34 -42 -34 -74 0 -45 39 -102 69 -102 40 0 56
51 21 70 -25 13 -36 55 -20 75 20 24 47 17 76 -20 28 -37 58 -45 68 -19 11 27
7 42 -20 73 -22 27 -32 31 -76 31 -44 0 -54 -4 -84 -34z"/>
<path d="M728 1344 c-32 -35 -58 -70 -58 -79 0 -29 30 -29 60 0 29 28 30 28
50 10 26 -24 25 -36 -5 -70 -20 -21 -23 -30 -14 -41 6 -8 15 -14 20 -14 19 0
158 142 152 156 -7 19 -25 18 -61 -3 -25 -14 -32 -15 -46 -4 -21 18 -20 34 4
56 11 10 20 26 20 37 0 14 -7 18 -32 17 -27 -1 -43 -12 -90 -65z"/>
<path d="M920 1227 c-33 -17 -70 -74 -70 -109 0 -40 15 -65 51 -84 49 -25 100
-5 142 56 57 81 -33 182 -123 137z m60 -63 c23 -20 30 -34 28 -53 -4 -39 -41
-40 -78 -2 -64 63 -19 113 50 55z"/>
<path d="M1102 1118 c-7 -7 -12 -22 -12 -35 0 -15 -8 -27 -23 -32 -13 -5 -36
-28 -51 -51 -26 -39 -27 -44 -11 -59 15 -15 18 -14 40 12 28 32 41 34 55 8 7
-14 7 -27 -1 -45 -14 -29 -6 -56 15 -56 21 0 48 44 44 72 -2 17 2 24 19 26 27
4 53 38 53 68 0 14 -14 34 -37 52 -57 44 -78 53 -91 40z m52 -84 c22 -21 20
-44 -3 -44 -30 0 -55 29 -40 46 15 18 24 18 43 -2z"/>
<path d="M1253 978 c-24 -8 -35 -20 -47 -52 -24 -62 -21 -103 10 -131 53 -49
139 -23 170 51 21 51 17 73 -20 110 -36 36 -57 40 -113 22z m65 -68 c35 -22
45 -66 16 -77 -20 -7 -82 24 -95 48 -24 46 22 63 79 29z"/>
<path d="M1487 874 c-4 -4 -7 -22 -7 -39 0 -18 -7 -38 -16 -46 -23 -19 -56
-89 -50 -105 8 -22 33 -16 54 13 18 25 21 26 50 14 43 -18 78 -7 97 30 25 48
16 80 -30 106 -47 26 -88 37 -98 27z m64 -74 c21 -12 26 -45 8 -56 -16 -9 -53
31 -46 50 7 19 12 19 38 6z"/>
<path d="M1689 741 c-78 -89 -99 -120 -93 -135 9 -23 49 -19 66 6 13 20 18 21
41 11 19 -9 27 -21 29 -45 2 -28 7 -33 28 -33 25 0 25 1 28 104 2 67 -1 108
-9 117 -21 25 -55 16 -90 -25z m59 -59 c3 -16 -2 -22 -17 -22 -26 0 -36 17
-20 36 16 19 33 13 37 -14z"/>
<path d="M1861 726 c-20 -24 -9 -51 22 -54 33 -4 34 -18 8 -95 -17 -49 -18
-57 -4 -68 26 -22 46 3 61 74 15 66 15 66 51 64 32 -2 36 1 36 22 0 22 -7 27
-65 42 -36 9 -72 20 -81 23 -9 4 -21 1 -28 -8z"/>
<path d="M2068 673 c-8 -10 -18 -40 -22 -68 -3 -27 -9 -68 -12 -91 -5 -32 -3
-42 10 -47 27 -11 42 18 56 106 17 108 6 143 -32 100z"/>
<path d="M2152 657 c-11 -13 -33 -187 -26 -199 3 -5 13 -8 23 -8 20 0 31 26
31 72 0 51 20 39 36 -22 16 -55 19 -60 46 -60 37 0 47 26 50 132 3 71 1 83
-14 86 -12 2 -19 -5 -23 -25 -22 -106 -39 -120 -49 -41 -4 29 -12 58 -18 65
-13 17 -43 17 -56 0z"/>
<path d="M3665 594 c-119 -22 -460 -101 -562 -130 -59 -17 -69 -38 -26 -55 16
-6 114 -10 233 -10 224 0 304 11 522 71 158 43 218 68 218 91 0 10 -10 24 -22
31 -35 19 -267 20 -363 2z"/>
</g>
</svg>
